<?xml version="1.0" encoding="utf-8"?>
<!-- Generator: Adobe Illustrator 19.0.0, SVG Export Plug-In . SVG Version: 6.00 Build 0)  -->
<svg version="1.1" id="Layer_1" xmlns="http://www.w3.org/2000/svg" xmlns:xlink="http://www.w3.org/1999/xlink" x="0px" y="0px"
	 viewBox="0 0 500 500" style="enable-background:new 0 0 500 500;" xml:space="preserve">
<style type="text/css">
	.st0{fill:#D40000;}
</style>
<g id="layer1" transform="translate(-1194.641,-1344.376)">
	<g id="g25441" transform="translate(7.086572,7.086332)">
		<path id="path274" class="st0" d="M1297.6,1639.1h-40.2l20.1-34.8h40.2"/>
		<path id="path276" class="st0" d="M1337.7,1639.1h40.1l-20.1-34.8h-40.1"/>
		<path id="path278" class="st0" d="M1337.7,1569.5l-20.1-34.8l-20.1,34.8l20.1,34.8"/>
		<path id="path280" d="M1395.9,1624.3h16.1v-5.8h-16.1v-7.2h18.1v-5.8h-24.9v33.7h25.4v-5.8h-18.6"/>
		<path id="path282" d="M1395.5,1574.8l7.1,25h6.6l7.1-25v25h6.4v-33.6h-9.8l-7,23.6l-7-23.6h-9.8v33.6h6.4"/>
		<path id="path284" d="M1543.5,1599.8h6.8v-33.6h-6.8V1599.8z"/>
		<path id="path286" d="M1549.1,1639.1h6.8v-33.7h-6.8V1639.1z"/>
		<path id="path288" d="M1610.6,1599.8h6.8v-33.6h-6.8V1599.8z"/>
		<path id="path290" d="M1425.3,1599.8h6.8v-33.6h-6.8V1599.8z"/>
		<path id="path292" d="M1601.2,1579.3h-13.5v-13.1h-6.7v33.6h6.7v-14.7h13.5v14.7h6.6v-33.6h-6.6"/>
		<path id="path294" d="M1442.2,1599.8h6.9V1572h8.2v-5.8h-23.3v5.8h8.3"/>
		<path id="path296" d="M1503.9,1639.1h6.9v-27.8h8.3v-5.8h-23.3v5.8h8.2"/>
		<path id="path298" d="M1499.4,1600.8c8.6,0,13.4-3.9,13.4-11.5v-23.1h-6.8v23.8c0,2.9-2.4,5.3-6.6,5.3c-5.2,0-6.7-2.9-6.7-5.3
			v-23.8h-6.6v23.1C1486.1,1597.4,1491.1,1600.8,1499.4,1600.8"/>
		<path id="path300" d="M1448.1,1624.3h16v-5.8h-16v-7.2h18v-5.8h-24.8v33.7h25.4v-5.8h-18.6"/>
		<path id="path302" d="M1530.4,1571.5c1.8,0,3.9,1.7,3.9,4c0,2-1.5,4.2-4.4,4.2h-8.1v-8.2H1530.4z M1529.8,1594.8h-8v-9.8h7.9
			c2.9,0,5.2,1.6,5.2,4.9C1534.9,1592.6,1532.8,1594.8,1529.8,1594.8 M1522.1,1599.8h9.8c6.4,0,10.1-3.8,10.1-9.1
			c0-4.3-3.1-7.9-6.5-8.8c3-0.7,5.3-3.8,5.3-7.5c0-5-3.6-8.3-10.4-8.3h-15.2v33.6l0,0"/>
		<path id="path304" d="M1527.6,1620.4v-9.2h8.2c2.8,0,4.6,1.9,4.6,4.6c0,1.9-1.6,4.6-4.4,4.6H1527.6z M1541.1,1623
			c2.9-0.9,5.9-3.5,5.9-8.1c0-6-4-9.4-10.9-9.4h-15.4v33.6h6.9v-13.3h5.7c3.5,0,5.4,1.8,5.9,4.2c0.6,2.6,0.5,6.6,1.2,9h6.9
			c-0.6-2.6-1.1-6.1-1.3-8.8C1545.9,1625.7,1543.4,1623.8,1541.1,1623"/>
		<path id="path306" d="M1423.5,1605.4h-6.8v33.7h22.6v-5.8h-15.8"/>
		<path id="path308" d="M1468.7,1585.6c5.4,0.9,8.5,2,8.5,5.2c0,2.2-2.1,4.3-6.7,4.3c-4.6,0-6.9-2.6-6.9-5.6h-6.5
			c0,5.9,3.8,11.2,13.7,11.2c9.3,0,13.5-5,13.5-10.7c0-5.3-3.5-8.7-9.7-9.9c-6-1.2-10.1-1.4-10.1-5.2c0-2.6,2.3-4.1,6-4.1
			c3.8,0,6.1,1.9,6.1,5.1h6.6c0-5.3-4-10.8-12.9-10.8c-6.2,0-12.5,3.6-12.5,10.2C1457.8,1581,1461.8,1584.4,1468.7,1585.6"/>
		<path id="path310" d="M1563.5,1585.6c5.5,0.9,8.6,2,8.6,5.2c0,2.2-2.2,4.3-6.7,4.3c-4.6,0-6.9-2.6-6.9-5.6h-6.5
			c0,5.9,3.7,11.2,13.7,11.2c9.3,0,13.5-5,13.5-10.7c0-5.3-3.5-8.7-9.8-9.9c-5.9-1.2-10.1-1.4-10.1-5.2c0-2.6,2.4-4.1,6.1-4.1
			c3.9,0,6.2,1.9,6.2,5.1h6.6c0-5.3-4-10.8-12.9-10.8c-6.2,0-12.6,3.6-12.6,10.2C1552.6,1581,1556.7,1584.4,1563.5,1585.6"/>
		<path id="path312" d="M1482,1633.9c-5.4,0-8.6-5.4-8.6-11.8c0-6.4,3.1-11.8,8.6-11.8c4.2,0,6.4,2.6,7.2,5.8h7.1
			c-1.2-6.6-6.3-11.5-14.4-11.5c-10.3,0-15.6,7.9-15.6,17.6c0,9.7,5.5,17.6,15.6,17.6c8.1,0,13.5-4.7,14.4-11.9h-7.1
			C1488.3,1631.3,1486.1,1633.9,1482,1633.9"/>
		<path id="path314" d="M1573.3,1633.9c-5.5,0-8.7-5.4-8.7-11.8c0-6.4,3.1-11.8,8.7-11.8c4.1,0,6.3,2.6,7.2,5.8h7
			c-1.2-6.6-6.3-11.5-14.4-11.5c-10.3,0-15.5,7.9-15.5,17.6c0,9.7,5.4,17.6,15.5,17.6c8.1,0,13.5-4.7,14.5-11.9h-7.1
			C1579.5,1631.3,1577.3,1633.9,1573.3,1633.9"/>
	</g>
</g>
</svg>
